<?xml version="1.0" encoding="UTF-8" standalone="no"?>
<!-- Created with Inkscape (http://www.inkscape.org/) -->

<svg
   width="168.81252mm"
   height="43.712105mm"
   viewBox="0 0 168.81252 43.712105"
   version="1.1"
   id="svg115087"
   inkscape:version="1.2.2 (b0a8486541, 2022-12-01)"
   sodipodi:docname="logo.svg"
   xmlns:inkscape="http://www.inkscape.org/namespaces/inkscape"
   xmlns:sodipodi="http://sodipodi.sourceforge.net/DTD/sodipodi-0.dtd"
   xmlns:xlink="http://www.w3.org/1999/xlink"
   xmlns="http://www.w3.org/2000/svg"
   xmlns:svg="http://www.w3.org/2000/svg">
  <sodipodi:namedview
     id="namedview115089"
     pagecolor="#ffffff"
     bordercolor="#000000"
     borderopacity="0.25"
     inkscape:showpageshadow="2"
     inkscape:pageopacity="0.0"
     inkscape:pagecheckerboard="0"
     inkscape:deskcolor="#d1d1d1"
     inkscape:document-units="mm"
     showgrid="false"
     inkscape:zoom="2.227426"
     inkscape:cx="359.38343"
     inkscape:cy="59.485701"
     inkscape:window-width="1920"
     inkscape:window-height="1001"
     inkscape:window-x="0"
     inkscape:window-y="1080"
     inkscape:window-maximized="1"
     inkscape:current-layer="layer1" />
  <defs
     id="defs115084">
    <rect
       x="-540.60785"
       y="2331.3252"
       width="698.48761"
       height="123.89719"
       id="rect111485" />
    <linearGradient
       inkscape:collect="always"
       xlink:href="#linearGradient85026"
       id="linearGradient111489"
       gradientUnits="userSpaceOnUse"
       gradientTransform="matrix(0.83345484,0,0,0.83345484,585.81205,-215.17777)"
       x1="-546.55823"
       y1="529.87091"
       x2="-494.11133"
       y2="529.87091" />
    <linearGradient
       inkscape:collect="always"
       id="linearGradient85026">
      <stop
         style="stop-color:#0f1130;stop-opacity:1;"
         offset="0"
         id="stop85022" />
      <stop
         style="stop-color:#553f90;stop-opacity:1;"
         offset="1"
         id="stop85024" />
    </linearGradient>
  </defs>
  <g
     inkscape:label="Layer 1"
     inkscape:groupmode="layer"
     id="layer1"
     transform="translate(-130.28044,-204.58966)">
    <g
       aria-label="simulo"
       transform="matrix(1.2885,0,0,1.2885,879.20613,-2801.6907)"
       id="text111441"
       style="font-weight:600;font-size:32px;font-family:Urbanist;-inkscape-font-specification:'Urbanist Semi-Bold';white-space:pre;shape-inside:url(#rect111485);display:inline;fill:#ffffff;stroke:#99e077;stroke-width:0;stroke-linecap:round;stroke-linejoin:round">
      <path
         d="m -533.88742,2360.9616 c 3.232,0.192 6.304,-1.856 6.304,-4.864 0.064,-2.72 -2.592,-4.064 -5.424,-4.992 -1.616,-0.512 -3.312,-0.656 -3.312,-2.064 0,-1.44 1.392,-2.112 3.056,-2.048 1.28,0.064 2.56,0.784 3.056,1.744 l 2.64,-1.568 c -1.136,-1.904 -3.408,-3.056 -5.968,-3.056 -3.104,0 -5.904,1.936 -5.904,5.008 0,2.832 2.544,4.208 5.712,4.928 1.408,0.368 3.056,0.688 3.056,2.096 0,1.28 -1.408,1.952 -2.88,1.952 -1.536,0 -2.992,-0.912 -3.424,-1.792 l -2.832,1.216 c 0.88,2.016 3.376,3.296 5.92,3.44 z"
         id="path115389" />
      <path
         d="m -523.43949,2342.3376 c 0.992,0 1.76,-0.736 1.76,-1.744 0,-0.992 -0.784,-1.744 -1.76,-1.744 -1.008,0 -1.776,0.752 -1.776,1.744 0,1.008 0.768,1.744 1.776,1.744 z m -1.68,2.32 v 16 h 3.328 v -16 z"
         id="path115391" />
      <path
         d="m -518.04753,2360.6576 h 3.328 v -9.184 c 0,-2.112 1.712,-3.904 3.808,-3.904 2.112,0 3.824,1.68 3.824,3.904 v 9.184 h 3.328 v -9.184 c 0,-2.224 1.696,-3.904 3.808,-3.904 2.112,0 3.808,1.792 3.808,3.904 v 9.184 h 3.328 v -10.048 c 0,-3.536 -2.864,-6.4 -6.4,-6.4 -2.288,0 -4.288,1.2 -5.408,3.008 -1.136,-1.808 -3.152,-3.008 -5.44,-3.008 -1.872,0 -3.536,0.832 -4.656,2.144 v -1.696 h -3.328 z"
         id="path115393" />
      <path
         d="m -490.25558,2354.6576 c 0,3.552 2.864,6.416 6.416,6.416 1.856,0 3.536,-0.832 4.64,-2.144 l 0.016,1.728 h 3.328 l -0.016,-16 h -3.328 v 9.184 c 0,2.144 -1.712,3.872 -3.856,3.872 -2.128,0 -3.872,-1.728 -3.872,-3.872 v -9.184 h -3.328 z"
         id="path115395" />
      <path
         d="m -472.38362,2360.6576 h 3.328 v -24 h -3.328 z"
         id="path115397" />
      <path
         d="m -458.22365,2361.0736 c 4.416,0 8,-3.776 8,-8.416 0,-4.672 -3.584,-8.448 -8,-8.448 -4.416,0 -8,3.776 -8,8.448 0,4.64 3.584,8.416 8,8.416 z m 0,-3.328 c -2.544,0 -4.672,-2.224 -4.672,-5.088 0,-2.752 2.032,-5.12 4.672,-5.12 2.576,0 4.672,2.336 4.672,5.12 0,2.736 -2.032,5.088 -4.672,5.088 z"
         id="path115399" />
    </g>
    <circle
       style="fill:url(#linearGradient111489);fill-opacity:1;stroke:#99e077;stroke-width:0;stroke-linecap:round;stroke-linejoin:round;stroke-dasharray:none;stroke-opacity:1"
       id="circle111443"
       cx="152.13649"
       cy="226.44571"
       r="21.856052" />
    <g
       id="g111451"
       transform="matrix(0.76226417,0,0,0.76226417,549.27628,-177.52586)">
      <path
         class="a"
         d="m -529.87539,536.74808 c -0.11688,-0.81014 0.44159,-1.55689 1.25173,-1.67378 l 15.69641,-2.26452 c 0.81014,-0.11687 1.5569,0.44159 1.67378,1.25173 l 1.94797,13.50229 c 0.11688,0.81013 -0.44158,1.5569 -1.25172,1.67378 l -15.69641,2.26451 c -0.81014,0.11688 -1.5569,-0.44157 -1.67379,-1.25171 z"
         id="path111445"
         style="fill:#99e077;fill-opacity:1;stroke-width:0.056842" />
      <path
         class="a"
         d="m -519.14404,545.25022 c -5.14774,0.74266 -9.91157,-2.81992 -10.65424,-7.96767 -0.74267,-5.14775 2.81992,-9.91158 7.96767,-10.65425 5.14774,-0.74266 9.91158,2.81992 10.65424,7.96767 0.74267,5.14775 -2.81991,9.91158 -7.96767,10.65425 z"
         id="path111447"
         style="fill:#99e077;fill-opacity:1;stroke-width:0.056842" />
      <path
         class="a"
         d="m -521.48538,529.2203 c -5.32215,0.76783 -10.24049,-2.91029 -11.00832,-8.23245 -0.76782,-5.32215 2.9103,-10.24049 8.23245,-11.00832 5.32216,-0.76782 10.2405,2.91031 11.00832,8.23245 0.76783,5.32216 -2.91029,10.2405 -8.23245,11.00832 z"
         id="path111449"
         style="fill:#99e077;fill-opacity:1;stroke-width:0.056842" />
    </g>
  </g>
</svg>
