<?xml version="1.0" encoding="UTF-8" standalone="no"?>
<!-- Created with Inkscape (http://www.inkscape.org/) -->

<svg
   width="210mm"
   height="297mm"
   viewBox="0 0 210 297"
   version="1.1"
   id="svg32535"
   inkscape:version="1.2.2 (b0a8486541, 2022-12-01)"
   sodipodi:docname="carrotts new.svg"
   xmlns:inkscape="http://www.inkscape.org/namespaces/inkscape"
   xmlns:sodipodi="http://sodipodi.sourceforge.net/DTD/sodipodi-0.dtd"
   xmlns:xlink="http://www.w3.org/1999/xlink"
   xmlns="http://www.w3.org/2000/svg"
   xmlns:svg="http://www.w3.org/2000/svg">
  <sodipodi:namedview
     id="namedview32537"
     pagecolor="#ffffff"
     bordercolor="#000000"
     borderopacity="0.25"
     inkscape:showpageshadow="2"
     inkscape:pageopacity="0.0"
     inkscape:pagecheckerboard="0"
     inkscape:deskcolor="#d1d1d1"
     inkscape:document-units="mm"
     showgrid="false"
     inkscape:zoom="1.4142136"
     inkscape:cx="254.20489"
     inkscape:cy="424.61762"
     inkscape:window-width="1920"
     inkscape:window-height="1027"
     inkscape:window-x="0"
     inkscape:window-y="20"
     inkscape:window-maximized="1"
     inkscape:current-layer="layer1" />
  <defs
     id="defs32532">
    <rect
       x="62.587494"
       y="220.93447"
       width="730.28405"
       height="610.41936"
       id="rect33125" />
    <rect
       x="62.587494"
       y="220.93447"
       width="730.28405"
       height="610.41936"
       id="rect33606" />
    <linearGradient
       inkscape:collect="always"
       xlink:href="#linearGradient1860"
       id="linearGradient50904"
       gradientUnits="userSpaceOnUse"
       gradientTransform="matrix(0.28825902,0,0,0.28825902,49.394526,59.140717)"
       x1="16.447525"
       y1="155.13518"
       x2="156.75677"
       y2="155.13518" />
    <linearGradient
       inkscape:collect="always"
       id="linearGradient1860">
      <stop
         style="stop-color:#e19045;stop-opacity:1;"
         offset="0"
         id="stop1856" />
      <stop
         style="stop-color:#e05938;stop-opacity:1;"
         offset="1"
         id="stop1858" />
    </linearGradient>
  </defs>
  <g
     inkscape:label="Layer 1"
     inkscape:groupmode="layer"
     id="layer1">
    <circle
       style="fill:url(#linearGradient50904);fill-opacity:1;fill-rule:evenodd;stroke:none;stroke-width:0.0860402;stroke-linecap:round;stroke-linejoin:round"
       id="circle50894"
       cx="74.35836"
       cy="103.85984"
       r="20.222702" />
    <rect
       style="fill:#000000;fill-opacity:1;stroke:none;stroke-width:4.98307;stroke-linecap:round;stroke-linejoin:round;stroke-opacity:1"
       id="rect43905"
       width="18.009176"
       height="6.3051567"
       x="92.956772"
       y="-175.03372"
       ry="3.1525784"
       transform="rotate(90)" />
    <rect
       style="fill:#757575;fill-opacity:1;stroke:none;stroke-width:4.98307;stroke-linecap:round;stroke-linejoin:round;stroke-opacity:1"
       id="rect41709"
       width="18.009176"
       height="6.3051567"
       x="168.72856"
       y="92.956772"
       ry="3.1525784" />
    <rect
       style="fill:#757575;fill-opacity:1;stroke:none;stroke-width:2.48551;stroke-linecap:round;stroke-linejoin:round;stroke-opacity:1"
       id="rect43893"
       width="8.9633646"
       height="3.1517949"
       x="168.72856"
       y="96.108604"
       ry="0" />
    <g
       aria-label="a"
       transform="matrix(0.26458333,0,0,0.26458333,79.291977,45.036979)"
       id="text33123"
       style="font-weight:bold;font-size:192px;font-family:'Carroted Mark';-inkscape-font-specification:'Carroted Mark Bold';white-space:pre;shape-inside:url(#rect33125);fill:#ffffff;stroke:#ffffff;stroke-width:18.8409;stroke-linecap:round;stroke-linejoin:round">
      <path
         d="m 109.05189,310.47453 c 3.456,-0.96 6.528,0.576 8.832,4.992 0,0 29.952,50.88 29.952,50.88 3.264,5.184 4.416,11.712 3.264,19.776 -0.96,7.296 -3.648,11.904 -8.064,13.824 -4.224,1.92 -8.064,0 -11.328,-5.568 0,0 -21.504,-37.824 -21.504,-37.824 0,0 -21.503999,37.824 -21.503999,37.824 -2.88,5.568 -6.72,7.488 -11.328,5.568 -4.224,-1.92 -6.912,-6.528 -8.064,-13.824 -0.96,-8.064 0,-14.592 3.264,-19.776 0,0 29.567999,-50.88 29.567999,-50.88 1.92,-3.264 4.224,-4.992 6.912,-4.992 z"
         style="fill:#000000;stroke:none"
         id="path33608" />
    </g>
    <g
       aria-label="a"
       transform="matrix(0.26458333,0,0,0.26458333,79.291977,45.036979)"
       id="text33604"
       style="font-weight:bold;font-size:192px;font-family:'Carroted Mark';-inkscape-font-specification:'Carroted Mark Bold';white-space:pre;shape-inside:url(#rect33606);fill:#757575;stroke-width:18.8409;stroke-linecap:round;stroke-linejoin:round">
      <path
         d="m 108.98379,310.43221 c 3.456,-0.96 6.528,0.576 8.832,4.992 l 29.952,50.88 c 3.264,5.184 4.4841,11.75432 3.3321,19.81832 -0.96,7.296 -3.648,11.904 -8.064,13.824 -4.224,1.92 -8.1321,-0.0423 -11.3961,-5.61032 -14.20422,-25.17535 -3.42726,-5.85679 -36.956858,-66.02734 1.525878,-2.57771 7.388858,-12.88466 7.388858,-12.88466 1.92,-3.264 4.224,-4.992 6.912,-4.992 z"
         id="path33611"
         sodipodi:nodetypes="ccccccccc" />
    </g>
    <g
       aria-label="a"
       transform="matrix(0.18708867,-0.18708867,0.11576919,0.11576919,89.977962,94.429528)"
       id="g40925"
       style="font-weight:bold;font-size:192px;font-family:'Carroted Mark';-inkscape-font-specification:'Carroted Mark Bold';white-space:pre;shape-inside:url(#rect33125);fill:#ffffff;stroke:#ffffff;stroke-width:18.8409;stroke-linecap:round;stroke-linejoin:round">
      <path
         d="m 109.05189,310.47453 c 3.456,-0.96 6.528,0.576 8.832,4.992 0,0 29.952,50.88 29.952,50.88 3.264,5.184 4.416,11.712 3.264,19.776 -0.96,7.296 -3.648,11.904 -8.064,13.824 -4.224,1.92 -8.064,0 -11.328,-5.568 0,0 -21.504,-37.824 -21.504,-37.824 0,0 -21.503999,37.824 -21.503999,37.824 -2.88,5.568 -6.72,7.488 -11.328,5.568 -4.224,-1.92 -6.912,-6.528 -8.064,-13.824 -0.96,-8.064 0,-14.592 3.264,-19.776 0,0 29.567999,-50.88 29.567999,-50.88 1.92,-3.264 4.224,-4.992 6.912,-4.992 z"
         style="fill:#000000;stroke:none"
         id="path40923" />
    </g>
    <g
       aria-label="a"
       transform="matrix(0.18708867,-0.18708867,0.11576919,0.11576919,89.977962,94.429528)"
       id="g40929"
       style="font-weight:bold;font-size:192px;font-family:'Carroted Mark';-inkscape-font-specification:'Carroted Mark Bold';white-space:pre;shape-inside:url(#rect33606);fill:#757575;stroke-width:18.8409;stroke-linecap:round;stroke-linejoin:round">
      <path
         d="m 108.98379,310.43221 c 3.456,-0.96 6.528,0.576 8.832,4.992 l 29.952,50.88 c 3.264,5.184 4.4841,11.75432 3.3321,19.81832 -0.96,7.296 -3.648,11.904 -8.064,13.824 -4.224,1.92 -8.1321,-0.0423 -11.3961,-5.61032 -14.20422,-25.17535 -3.42726,-5.85679 -36.956858,-66.02734 1.525878,-2.57771 7.388858,-12.88466 7.388858,-12.88466 1.92,-3.264 4.224,-4.992 6.912,-4.992 z"
         id="path40927"
         sodipodi:nodetypes="ccccccccc" />
    </g>
    <rect
       style="fill:#000000;fill-opacity:1;stroke:none;stroke-width:6.79222;stroke-linecap:round;stroke-linejoin:round;stroke-opacity:1"
       id="rect43909"
       width="24.547529"
       height="8.594286"
       x="-22.509571"
       y="-134.29332"
       ry="4.297143"
       transform="matrix(-0.50321761,0.86415973,-0.50321761,-0.86415973,0,0)" />
    <rect
       style="fill:#3d3d3d;fill-opacity:1;stroke:none;stroke-width:6.79222;stroke-linecap:round;stroke-linejoin:round;stroke-opacity:1"
       id="rect43911"
       width="24.547529"
       height="8.594286"
       x="125.69906"
       y="-22.509571"
       ry="4.297143"
       transform="matrix(0.50321761,0.86415973,-0.50321761,0.86415973,0,0)" />
    <rect
       style="fill:#3d3d3d;fill-opacity:1;stroke:none;stroke-width:3.38789;stroke-linecap:round;stroke-linejoin:round;stroke-opacity:1"
       id="rect43913"
       width="12.217574"
       height="4.2960753"
       x="125.69906"
       y="-18.213448"
       ry="0"
       transform="matrix(0.50321761,0.86415973,-0.50321761,0.86415973,0,0)" />
  </g>
</svg>
