<?xml version="1.0" encoding="UTF-8" standalone="no"?>
<!-- Created with Inkscape (http://www.inkscape.org/) -->

<svg
   width="210mm"
   height="297mm"
   viewBox="0 0 210 297"
   version="1.1"
   id="svg118552"
   inkscape:version="1.2.2 (b0a8486541, 2022-12-01)"
   sodipodi:docname="earth.svg"
   inkscape:export-filename="earth.png"
   inkscape:export-xdpi="96"
   inkscape:export-ydpi="96"
   xmlns:inkscape="http://www.inkscape.org/namespaces/inkscape"
   xmlns:sodipodi="http://sodipodi.sourceforge.net/DTD/sodipodi-0.dtd"
   xmlns="http://www.w3.org/2000/svg"
   xmlns:svg="http://www.w3.org/2000/svg">
  <sodipodi:namedview
     id="namedview118554"
     pagecolor="#ffffff"
     bordercolor="#000000"
     borderopacity="0.25"
     inkscape:showpageshadow="2"
     inkscape:pageopacity="0.0"
     inkscape:pagecheckerboard="0"
     inkscape:deskcolor="#d1d1d1"
     inkscape:document-units="mm"
     showgrid="false"
     inkscape:zoom="0.78751403"
     inkscape:cx="309.83575"
     inkscape:cy="511.10201"
     inkscape:window-width="1920"
     inkscape:window-height="1027"
     inkscape:window-x="0"
     inkscape:window-y="20"
     inkscape:window-maximized="1"
     inkscape:current-layer="layer1" />
  <defs
     id="defs118549" />
  <g
     inkscape:label="Layer 1"
     inkscape:groupmode="layer"
     id="layer1">
    <circle
       style="fill:#674ad8;stroke:#674ad8;stroke-width:2.6;stroke-linecap:round;stroke-linejoin:round;stroke-opacity:1;fill-opacity:1"
       id="path118725"
       cx="106.14548"
       cy="138.92154"
       r="55.856655" />
    <path
       style="fill:#a0e160;fill-opacity:1;stroke:#a0e160;stroke-width:2.6;stroke-linecap:round;stroke-linejoin:round;stroke-opacity:1"
       d="m 57.196922,106.95374 c 0.341701,-4.18466 5.232111,-5.53673 6.400752,-9.024891 0.396642,-1.183896 -0.09075,-3.073331 0.694423,-3.858532 3.213185,-3.213293 7.424676,-3.910217 11.090166,-6.767764 3.581871,-2.792362 7.614626,-2.238386 11.903811,-2.94187 3.75154,-0.615305 12.520609,-3.620913 14.611606,1.326739 0.60388,1.428891 1.12642,2.839406 2.14835,3.858671 3.26682,3.258288 4.79613,4.120102 3.75145,10.356061 -0.83775,5.000776 -8.70338,6.909226 -11.414807,11.583546 -1.048485,1.80752 -0.158297,4.51284 -1.272624,6.42051 -1.891559,3.23826 -4.946663,3.7721 -5.999798,7.98464 -0.727191,2.90877 1.552218,4.33666 -0.942546,6.83143 -1.665679,1.66567 -7.660362,6.37608 -9.570797,4.86483 -6.566175,-5.19418 1.718239,-10.80283 -1.097798,-13.12863 -3.73017,-3.0808 -16.5002,2.15212 -21.385792,-3.02979 -1.207889,-1.28115 -4.336267,3.73743 -4.336267,-1.75911 0,-3.68786 1.782078,-4.34983 3.198855,-7.20746 0.874094,-1.76304 1.222706,-3.72581 2.221016,-5.50838 z"
       id="path118790" />
    <path
       style="fill:#a0e160;fill-opacity:1;stroke:#a0e160;stroke-width:2.6;stroke-linecap:round;stroke-linejoin:round;stroke-opacity:1"
       d="m 109.3262,153.07228 c 2.1792,-5.4342 8.02342,-5.76049 12.90018,-6.492 2.68965,-0.40345 4.0799,-4.71772 7.19295,-5.49598 3.94664,-0.98666 17.24996,8.33306 16.09416,12.93402 -1.69745,6.75717 -13.46725,17.12656 -19.73754,19.63468 -1.79492,0.71797 -5.47751,0.69419 -6.8338,1.8653 -0.0881,0.0761 -1.77227,1.71609 -1.8097,1.69262 -4.65126,-2.91687 -0.40083,-14.91702 -2.43682,-19.04481 -1.04387,-2.11634 -4.59904,-2.77158 -5.36943,-5.09383 z"
       id="path119218" />
    <path
       style="fill:#a0e160;fill-opacity:1;stroke:#a0e160;stroke-width:2.6;stroke-linecap:round;stroke-linejoin:round;stroke-opacity:1"
       d="m 56.576433,168.60748 c 2.887466,6.35792 19.431603,25.87904 27.052856,22.6977 2.841113,-1.18596 2.274805,-9.08774 2.454434,-11.71725 0.673338,-9.85667 -7.085794,-7.11838 -7.949477,-11.95325 -1.120607,-6.27312 8.624712,-6.3975 4.566845,-19.32411 -0.309487,-0.98588 0.788761,-2.89895 0.255923,-3.74633 -2.588718,-4.11685 -7.204833,14.00902 -7.286097,14.10334 -7.678898,8.91257 -13.056489,2.53269 -19.094484,9.9399 z"
       id="path119274" />
    <path
       style="fill:#a0e160;fill-opacity:1;stroke:#a0e160;stroke-width:2.6;stroke-linecap:round;stroke-linejoin:round;stroke-opacity:1"
       d="m 148.50558,114.1088 c 0.14868,2.86764 0.24962,5.7044 2.39279,7.0825 1.74866,1.12442 3.62457,1.02036 5.91144,0.93156 7.30492,-0.28364 -1.28281,-11.82298 -3.1,-14.98273 -2.08181,-3.61986 -7.28897,4.01765 -5.20423,6.96867 z"
       id="path119276" />
  </g>
</svg>
