<?xml version="1.0" encoding="UTF-8" standalone="no"?>
<svg
   version="1.2"
   viewBox="0 0 732.54499 732.54499"
   width="732.54498"
   height="732.54498"
   id="svg16842"
   sodipodi:docname="Icon Square.svg"
   inkscape:export-filename="../../../Pictures/faviconulo.png"
   inkscape:export-xdpi="96"
   inkscape:export-ydpi="96"
   inkscape:version="1.2.2 (b0a8486541, 2022-12-01)"
   xmlns:inkscape="http://www.inkscape.org/namespaces/inkscape"
   xmlns:sodipodi="http://sodipodi.sourceforge.net/DTD/sodipodi-0.dtd"
   xmlns="http://www.w3.org/2000/svg"
   xmlns:svg="http://www.w3.org/2000/svg">
  <defs
     id="defs16846" />
  <sodipodi:namedview
     id="namedview16844"
     pagecolor="#101010"
     bordercolor="#000000"
     borderopacity="0.25"
     inkscape:showpageshadow="2"
     inkscape:pageopacity="0"
     inkscape:pagecheckerboard="true"
     inkscape:deskcolor="#000000"
     showgrid="false"
     inkscape:zoom="0.45254834"
     inkscape:cx="195.55922"
     inkscape:cy="155.78446"
     inkscape:window-width="1920"
     inkscape:window-height="1027"
     inkscape:window-x="0"
     inkscape:window-y="20"
     inkscape:window-maximized="1"
     inkscape:current-layer="svg16842" />
  <style
     id="style16834">.a{fill:#fff}</style>
  <path
     class="a"
     d="m 209.1203,472.71149 c -2.0562,-14.25244 7.76856,-27.38995 22.02099,-29.44615 l 276.14105,-39.83882 c 14.25243,-2.05618 27.38995,7.76857 29.44615,22.02101 l 34.26994,237.54067 c 2.0562,14.25244 -7.76855,27.38995 -22.021,29.44616 L 272.8364,732.27317 c -14.25245,2.05618 -27.38995,-7.76857 -29.44616,-22.02101 z"
     id="path16836"
     style="fill:#7be891;fill-opacity:1" />
  <path
     class="a"
     d="M 397.9129,622.28624 C 307.35052,635.35166 223.54224,572.67653 210.47682,482.11414 197.4114,391.55176 260.08655,307.74349 350.64893,294.67808 441.21132,281.61266 525.01959,344.2878 538.085,434.85018 551.15042,525.41256 488.47528,609.22083 397.9129,622.28624 Z"
     id="path16838"
     style="fill:#7be891;fill-opacity:1" />
  <path
     class="a"
     d="M 356.72247,340.27809 C 263.09185,353.78617 176.56546,289.07833 163.05739,195.4477 149.54932,101.81708 214.25715,15.290718 307.88779,1.7826543 401.51841,-11.725419 488.04479,52.982428 501.55285,146.61304 515.06093,240.24365 450.35308,326.77003 356.72247,340.27809 Z"
     id="path16840"
     style="fill:#7be891;fill-opacity:1" />
</svg>
