<?xml version="1.0" encoding="UTF-8" standalone="no"?>
<svg
   version="1.2"
   viewBox="0 0 2664.127 732.54523"
   width="2664.127"
   height="732.54523"
   id="svg16946"
   sodipodi:docname="Logo.svg"
   inkscape:version="1.2.2 (b0a8486541, 2022-12-01)"
   xmlns:inkscape="http://www.inkscape.org/namespaces/inkscape"
   xmlns:sodipodi="http://sodipodi.sourceforge.net/DTD/sodipodi-0.dtd"
   xmlns="http://www.w3.org/2000/svg"
   xmlns:svg="http://www.w3.org/2000/svg"
   xmlns:rdf="http://www.w3.org/1999/02/22-rdf-syntax-ns#"
   xmlns:cc="http://creativecommons.org/ns#"
   xmlns:dc="http://purl.org/dc/elements/1.1/">
  <defs
     id="defs16950" />
  <sodipodi:namedview
     id="namedview16948"
     pagecolor="#2a2a2a"
     bordercolor="#000000"
     borderopacity="0.25"
     inkscape:showpageshadow="2"
     inkscape:pageopacity="0"
     inkscape:pagecheckerboard="true"
     inkscape:deskcolor="#000000"
     showgrid="false"
     inkscape:zoom="0.17121101"
     inkscape:cx="1509.8328"
     inkscape:cy="300.79841"
     inkscape:window-width="1920"
     inkscape:window-height="1027"
     inkscape:window-x="0"
     inkscape:window-y="20"
     inkscape:window-maximized="1"
     inkscape:current-layer="svg16946" />
  <title
     id="title16937">New Project</title>
  <style
     id="style16939">
		.s0 { fill: #ffffff } 
		.s1 { fill: #7be891 } 
	</style>
  <path
     id="Text"
     class="s0"
     aria-label="simulo"
     d="m 737.2269,595.0712 q -29.2,-1.8 -57,-11.8 -27.7,-10 -48.8,-27 -20.7,-17.4 -31.1,-40.7 l 65.5,-28.1 q 4.8,10 16.6,19.6 12.3,9.6 28.5,15.9 16.3,5.9 34.1,5.9 17.4,0 32.2,-4.8 15.1,-5.2 24.7,-15.5 9.7,-10.4 9.7,-24.8 0,-16.3 -11.1,-25.2 -10.8,-9.2 -27,-14.1 -16.3,-4.8 -32.6,-9.2 -36.3,-8.1 -66.6,-22.2 -30,-14.4 -47.7,-36.6 -17.8,-22.6 -17.8,-55.2 0,-35.5 19.3,-61.4 19.2,-26.2 50.3,-40.3 31.4,-14.1 66.9,-14.1 44.4,0 81.4,18.9 37,18.9 56.6,51.8 l -61,36.3 q -5.6,-11.1 -16.7,-20 -11.1,-8.9 -25.1,-14.1 -14.1,-5.5 -29.2,-6.3 -18.9,-0.7 -35.2,4.5 -15.9,4.8 -25.5,15.5 -9.6,10.7 -9.6,27.4 0,16.3 11.4,24.4 11.5,7.8 28.9,12.6 17.8,4.8 36.3,10.7 32.9,10.4 61.7,25.6 28.9,14.8 46.7,36.6 17.7,21.8 17,53.3 0,34.7 -21.1,61 -20.7,26.3 -54,40 -33.3,13.6 -70.7,11.4 z m 202.4,-7 v -370 h 76.9 v 370 z m 39.3,-423.6 q -17.8,0 -29.6,-11.5 -11.9,-11.5 -11.9,-28.9 0,-17 11.9,-28.400004 11.8,-11.9 29.2,-11.9 17,0 28.8,11.9 11.9,11.400004 11.9,28.400004 0,17.4 -11.9,28.9 -11.4,11.5 -28.4,11.5 z m 201.2,423.6 h -76.9 v -370 h 76.9 v 39.2 q 19.3,-22.9 47,-36.2 28.1,-13.3 60.7,-13.3 39.6,0 72.9,19.2 33.3,18.9 52.9,50.3 19.6,-31.4 52.1,-50.3 33,-19.2 72.6,-19.2 41,0 74.7,19.9 33.7,20 53.6,53.7 20,33.7 20,74.7 v 232 h -76.9 v -212.4 q 0,-24.4 -11.9,-44.7 -11.8,-20.4 -31.8,-33 -20,-12.5 -44.4,-12.5 -24.4,0 -44.4,11.8 -20,11.8 -31.8,32.2 -11.8,20.3 -11.8,46.2 v 212.4 h -77 v -212.4 q 0,-25.9 -11.8,-46.2 -11.9,-20.4 -32.2,-32.2 -20,-11.8 -44.4,-11.8 -24.1,0 -44.4,12.5 -20,12.6 -31.8,33 -11.9,20.3 -11.9,44.7 z m 565.7,-138.7 v -231.2 h 77 v 212.3 q 0,24.8 12.2,45.2 12.2,20.3 32.5,32.5 20.4,11.9 44.8,11.9 24.8,0 44.8,-11.9 20.3,-12.2 32.2,-32.5 12.2,-20.4 12.2,-45.2 v -212.3 h 76.9 l 0.4,369.9 h -77 l -0.3,-39.9 q -18.9,22.9 -47,36.2 -28.1,13.4 -60.3,13.4 -41.1,0 -74.8,-20 -33.6,-20 -53.6,-53.7 -20,-33.6 -20,-74.7 z m 486.5,138.7 h -76.9 V 33.171205 h 76.9 z m 246.8,9.6 q -51,0 -93.2,-26.3 -41.8,-26.3 -67,-70.3 -24.8,-44.4 -24.8,-98 0,-40.7 14.5,-75.9 14.4,-35.5 39.5,-62.1 25.6,-27 59.2,-42.2 33.7,-15.2 71.8,-15.2 51.1,0 92.9,26.3 42.2,26.3 66.9,70.7 25.2,44.4 25.2,98.4 0,40.3 -14.4,75.5 -14.5,35.1 -40,62.1 -25.1,26.6 -58.8,41.8 -33.3,15.2 -71.8,15.2 z m 0,-77 q 30.7,0 55.1,-16.2 24.5,-16.3 38.5,-43 14.4,-27 14.4,-58.4 0,-32.2 -14.8,-59.2 -14.4,-27 -38.8,-42.9 -24.4,-16.3 -54.4,-16.3 -30.3,0 -55.1,16.3 -24.4,16.2 -38.9,43.3 -14,27 -14,58.8 0,32.9 14.8,59.5 14.8,26.7 39.2,42.6 24.8,15.5 54,15.5 z" />
  <g
     id="g22802"
     transform="translate(-3.5731037,-33.196214)">
    <path
       class="a"
       d="m 51.41878,505.9078 c -2.0562,-14.2524 7.76856,-27.38993 22.02099,-29.44613 l 276.14105,-39.83882 c 14.25243,-2.05618 27.38995,7.76857 29.44615,22.02101 l 34.26994,237.54074 c 2.0562,14.2524 -7.76855,27.3899 -22.021,29.4461 l -276.14103,39.8388 c -14.25245,2.0562 -27.38995,-7.7685 -29.44616,-22.021 z"
       id="path16836"
       style="fill:#7be891;fill-opacity:1" />
    <path
       class="a"
       d="M 240.21138,655.4826 C 149.649,668.548 65.84072,605.8729 52.7753,515.3105 39.70988,424.74809 102.38503,340.93982 192.94741,327.87441 283.5098,314.80899 367.31807,377.48413 380.38348,468.04651 393.4489,558.6089 330.77376,642.4172 240.21138,655.4826 Z"
       id="path16838"
       style="fill:#7be891;fill-opacity:1" />
    <path
       class="a"
       d="M 199.02095,373.47442 C 105.39033,386.9825 18.86394,322.27466 5.3558699,228.64403 -8.1522001,135.01341 56.55563,48.48705 150.18627,34.97898 c 93.63062,-13.50807 180.157,51.19978 193.66506,144.83039 13.50808,93.63061 -51.19977,180.15699 -144.83038,193.66505 z"
       id="path16840"
       style="fill:#7be891;fill-opacity:1" />
  </g>
  <metadata
     id="metadata22804">
    <rdf:RDF>
      <cc:Work
         rdf:about="">
        <dc:title>New Project</dc:title>
      </cc:Work>
    </rdf:RDF>
  </metadata>
</svg>
