<?xml version="1.0" encoding="UTF-8" standalone="no"?>
<!-- Created with Inkscape (http://www.inkscape.org/) -->

<svg
   width="21.029989mm"
   height="21.029989mm"
   viewBox="0 0 21.029989 21.029989"
   version="1.1"
   id="svg14570"
   xml:space="preserve"
   inkscape:export-filename="simuloinfo.png"
   inkscape:export-xdpi="618.39001"
   inkscape:export-ydpi="618.39001"
   inkscape:version="1.2.2 (b0a8486541, 2022-12-01)"
   sodipodi:docname="simuloinfo.svg"
   xmlns:inkscape="http://www.inkscape.org/namespaces/inkscape"
   xmlns:sodipodi="http://sodipodi.sourceforge.net/DTD/sodipodi-0.dtd"
   xmlns:xlink="http://www.w3.org/1999/xlink"
   xmlns="http://www.w3.org/2000/svg"
   xmlns:svg="http://www.w3.org/2000/svg"><sodipodi:namedview
     id="namedview14572"
     pagecolor="#ffffff"
     bordercolor="#000000"
     borderopacity="0.25"
     inkscape:showpageshadow="2"
     inkscape:pageopacity="0.0"
     inkscape:pagecheckerboard="0"
     inkscape:deskcolor="#d1d1d1"
     inkscape:document-units="mm"
     showgrid="false"
     inkscape:zoom="4.323827"
     inkscape:cx="-20.005426"
     inkscape:cy="22.318192"
     inkscape:window-width="1920"
     inkscape:window-height="1027"
     inkscape:window-x="0"
     inkscape:window-y="20"
     inkscape:window-maximized="1"
     inkscape:current-layer="layer1" /><defs
     id="defs14567"><linearGradient
       inkscape:collect="always"
       xlink:href="#linearGradient85026"
       id="linearGradient98837"
       gradientUnits="userSpaceOnUse"
       gradientTransform="matrix(0.83345484,0,0,0.83345484,-41.40151,-136.15427)"
       x1="-546.55823"
       y1="529.87091"
       x2="-494.11133"
       y2="529.87091" /><linearGradient
       inkscape:collect="always"
       id="linearGradient85026"><stop
         style="stop-color:#0f1130;stop-opacity:1;"
         offset="0"
         id="stop85022" /><stop
         style="stop-color:#553f90;stop-opacity:1;"
         offset="1"
         id="stop85024" /></linearGradient></defs><g
     inkscape:label="Layer 1"
     inkscape:groupmode="layer"
     id="layer1"
     transform="translate(-91.068268,-134.5334)"><rect
       style="fill:#0f1130;fill-opacity:1;stroke-width:4.46903;stroke-linecap:round;stroke-linejoin:round;stroke-opacity:0.338295"
       id="rect16818"
       width="21.029989"
       height="21.029989"
       x="91.068268"
       y="134.5334" /><g
       id="g19984"
       transform="translate(-0.22338249,-0.615631)"><g
         id="g16338"
         transform="matrix(0.2766497,0,0,0.2766497,231.40178,59.695573)"><circle
           style="fill:url(#linearGradient98837);fill-opacity:1;stroke:#99e077;stroke-width:0;stroke-linecap:round;stroke-linejoin:round;stroke-dasharray:none;stroke-opacity:1"
           id="circle98791"
           cx="-475.07706"
           cy="305.46921"
           r="21.856052" /><g
           id="g98799"
           transform="matrix(0.76226417,0,0,0.76226417,-77.93728,-98.502365)"><path
             class="a"
             d="m -529.87539,536.74808 c -0.11688,-0.81014 0.44159,-1.55689 1.25173,-1.67378 l 15.69641,-2.26452 c 0.81014,-0.11687 1.5569,0.44159 1.67378,1.25173 l 1.94797,13.50229 c 0.11688,0.81013 -0.44158,1.5569 -1.25172,1.67378 l -15.69641,2.26451 c -0.81014,0.11688 -1.5569,-0.44157 -1.67379,-1.25171 z"
             id="path98793"
             style="fill:#99e077;fill-opacity:1;stroke-width:0.056842" /><path
             class="a"
             d="m -519.14404,545.25022 c -5.14774,0.74266 -9.91157,-2.81992 -10.65424,-7.96767 -0.74267,-5.14775 2.81992,-9.91158 7.96767,-10.65425 5.14774,-0.74266 9.91158,2.81992 10.65424,7.96767 0.74267,5.14775 -2.81991,9.91158 -7.96767,10.65425 z"
             id="path98795"
             style="fill:#99e077;fill-opacity:1;stroke-width:0.056842" /><path
             class="a"
             d="m -521.48538,529.2203 c -5.32215,0.76783 -10.24049,-2.91029 -11.00832,-8.23245 -0.76782,-5.32215 2.9103,-10.24049 8.23245,-11.00832 5.32216,-0.76782 10.2405,2.91031 11.00832,8.23245 0.76783,5.32216 -2.91029,10.2405 -8.23245,11.00832 z"
             id="path98797"
             style="fill:#99e077;fill-opacity:1;stroke-width:0.056842" /></g></g><g
         id="g15158"
         transform="matrix(0.26458333,0,0,0.26458333,100.1629,143.91058)"><path
           fill="#553788"
           d="m 15,31 c 0,2.209 -0.791,4 -3,4 H 5 C 1,35 1,21 5,21 h 7 c 2.209,0 3,1.791 3,4 z"
           id="path15116" /><path
           fill="#9266cc"
           d="M 34,33 H 33 V 23 h 1 c 0.553,0 1,-0.447 1,-1 0,-0.553 -0.447,-1 -1,-1 H 10 c -4,0 -4,14 0,14 h 24 c 0.553,0 1,-0.447 1,-1 0,-0.553 -0.447,-1 -1,-1 z"
           id="path15118" /><path
           fill="#ccd6dd"
           d="M 34.172,33 H 11 C 9,33 9,23 11,23 h 23.172 c 1.104,0 1.104,10 0,10 z"
           id="path15120" /><path
           fill="#99aab5"
           d="M 11.5,25 H 34.85 C 34.715,23.825 34.49,23 34.172,23 H 11 C 9.349,23 9.062,29.808 10.137,32.188 9.745,29.229 10.199,25 11.5,25 Z"
           id="path15122" /><path
           fill="#226699"
           d="m 12,8 c 0,2.209 -1.791,4 -4,4 H 4 C 0,12 0,1 4,1 h 4 c 2.209,0 4,1.791 4,4 z"
           id="path15124" /><path
           fill="#55acee"
           d="M 31,10 H 30 V 3 h 1 C 31.553,3 32,2.553 32,2 32,1.447 31.553,1 31,1 H 7 C 3,1 3,12 7,12 h 24 c 0.553,0 1,-0.447 1,-1 0,-0.553 -0.447,-1 -1,-1 z"
           id="path15126" /><path
           fill="#ccd6dd"
           d="M 31.172,10 H 8 C 6,10 6,3 8,3 h 23.172 c 1.104,0 1.104,7 0,7 z"
           id="path15128" /><path
           fill="#99aab5"
           d="M 8,5 H 31.925 C 31.811,3.875 31.561,3 31.172,3 H 8 C 6.807,3 6.331,5.489 6.562,7.5 6.718,6.142 7.193,5 8,5 Z"
           id="path15130" /><path
           fill="#f4900c"
           d="m 20,17 c 0,2.209 -1.791,4 -4,4 H 6 C 2,21 2,12 6,12 h 10 c 2.209,0 4,1.791 4,4 z"
           id="path15132" /><path
           fill="#ffac33"
           d="m 35,19 h -1 v -5 h 1 c 0.553,0 1,-0.447 1,-1 0,-0.553 -0.447,-1 -1,-1 H 15 c -4,0 -4,9 0,9 h 20 c 0.553,0 1,-0.447 1,-1 0,-0.553 -0.447,-1 -1,-1 z"
           id="path15134" /><path
           fill="#ccd6dd"
           d="M 35.172,19 H 16 c -2,0 -2,-5 0,-5 h 19.172 c 1.104,0 1.104,5 0,5 z"
           id="path15136" /><path
           fill="#99aab5"
           d="M 16,16 H 35.984 C 35.919,14.938 35.65,14 35.172,14 H 16 c -1.274,0 -1.733,2.027 -1.383,3.5 C 14.815,16.661 15.274,16 16,16 Z"
           id="path15138" /></g></g></g></svg>
