<?xml version="1.0" encoding="UTF-8" standalone="no"?>
<!-- Created with Inkscape (http://www.inkscape.org/) -->

<svg
   width="21.029989mm"
   height="21.029989mm"
   viewBox="0 0 21.029989 21.029989"
   version="1.1"
   id="svg14570"
   xml:space="preserve"
   inkscape:export-filename="../../simuloaccess.png"
   inkscape:export-xdpi="618.39001"
   inkscape:export-ydpi="618.39001"
   inkscape:version="1.2.2 (b0a8486541, 2022-12-01)"
   sodipodi:docname="simuloaccess.svg"
   xmlns:inkscape="http://www.inkscape.org/namespaces/inkscape"
   xmlns:sodipodi="http://sodipodi.sourceforge.net/DTD/sodipodi-0.dtd"
   xmlns:xlink="http://www.w3.org/1999/xlink"
   xmlns="http://www.w3.org/2000/svg"
   xmlns:svg="http://www.w3.org/2000/svg"><sodipodi:namedview
     id="namedview14572"
     pagecolor="#ffffff"
     bordercolor="#000000"
     borderopacity="0.25"
     inkscape:showpageshadow="2"
     inkscape:pageopacity="0.0"
     inkscape:pagecheckerboard="0"
     inkscape:deskcolor="#d1d1d1"
     inkscape:document-units="mm"
     showgrid="false"
     inkscape:zoom="4.323827"
     inkscape:cx="-18.155213"
     inkscape:cy="23.937128"
     inkscape:window-width="1920"
     inkscape:window-height="1027"
     inkscape:window-x="0"
     inkscape:window-y="20"
     inkscape:window-maximized="1"
     inkscape:current-layer="layer1" /><defs
     id="defs14567"><linearGradient
       inkscape:collect="always"
       xlink:href="#linearGradient85026"
       id="linearGradient98837"
       gradientUnits="userSpaceOnUse"
       gradientTransform="matrix(0.83345484,0,0,0.83345484,-41.40151,-136.15427)"
       x1="-546.55823"
       y1="529.87091"
       x2="-494.11133"
       y2="529.87091" /><linearGradient
       inkscape:collect="always"
       id="linearGradient85026"><stop
         style="stop-color:#0f1130;stop-opacity:1;"
         offset="0"
         id="stop85022" /><stop
         style="stop-color:#553f90;stop-opacity:1;"
         offset="1"
         id="stop85024" /></linearGradient></defs><g
     inkscape:label="Layer 1"
     inkscape:groupmode="layer"
     id="layer1"
     transform="translate(-91.068268,-134.5334)"><rect
       style="fill:#0f1130;fill-opacity:1;stroke-width:4.46903;stroke-linecap:round;stroke-linejoin:round;stroke-opacity:0.338295"
       id="rect16818"
       width="21.029989"
       height="21.029989"
       x="91.068268"
       y="134.5334" /><g
       id="g20136"
       transform="translate(-0.16737308)"><g
         id="g16338"
         transform="matrix(0.2766497,0,0,0.2766497,231.09813,59.982952)"><circle
           style="fill:url(#linearGradient98837);fill-opacity:1;stroke:#99e077;stroke-width:0;stroke-linecap:round;stroke-linejoin:round;stroke-dasharray:none;stroke-opacity:1"
           id="circle98791"
           cx="-475.07706"
           cy="305.46921"
           r="21.856052" /><g
           id="g98799"
           transform="matrix(0.76226417,0,0,0.76226417,-77.93728,-98.502365)"><path
             class="a"
             d="m -529.87539,536.74808 c -0.11688,-0.81014 0.44159,-1.55689 1.25173,-1.67378 l 15.69641,-2.26452 c 0.81014,-0.11687 1.5569,0.44159 1.67378,1.25173 l 1.94797,13.50229 c 0.11688,0.81013 -0.44158,1.5569 -1.25172,1.67378 l -15.69641,2.26451 c -0.81014,0.11688 -1.5569,-0.44157 -1.67379,-1.25171 z"
             id="path98793"
             style="fill:#99e077;fill-opacity:1;stroke-width:0.056842" /><path
             class="a"
             d="m -519.14404,545.25022 c -5.14774,0.74266 -9.91157,-2.81992 -10.65424,-7.96767 -0.74267,-5.14775 2.81992,-9.91158 7.96767,-10.65425 5.14774,-0.74266 9.91158,2.81992 10.65424,7.96767 0.74267,5.14775 -2.81991,9.91158 -7.96767,10.65425 z"
             id="path98795"
             style="fill:#99e077;fill-opacity:1;stroke-width:0.056842" /><path
             class="a"
             d="m -521.48538,529.2203 c -5.32215,0.76783 -10.24049,-2.91029 -11.00832,-8.23245 -0.76782,-5.32215 2.9103,-10.24049 8.23245,-11.00832 5.32216,-0.76782 10.2405,2.91031 11.00832,8.23245 0.76783,5.32216 -2.91029,10.2405 -8.23245,11.00832 z"
             id="path98797"
             style="fill:#99e077;fill-opacity:1;stroke-width:0.056842" /></g></g><g
         id="g20101"
         transform="matrix(0.30918629,0,0,0.30918629,98.495006,142.55753)"><g
           id="g20124"
           transform="translate(1.3737448,-3.348203)"><path
             fill="#ea596e"
             d="m 26.751,8.007 c 1.364,1.365 3.364,1.708 5.046,1.032 l 3.613,3.611 c 0.737,0.74 0.738,1.938 -0.004,2.68 L 15.319,35.405 c -0.743,0.739 -1.94,0.737 -2.681,0 L 9.032,31.793 C 9.704,30.109 9.362,28.111 8,26.746 6.633,25.381 4.636,25.039 2.953,25.714 l -2.359,-2.36 c -0.74,-0.737 -0.742,-1.938 0,-2.68 L 20.678,0.596 c 0.739,-0.74 1.936,-0.741 2.679,0.002 l 2.361,2.361 c -0.677,1.683 -0.331,3.681 1.033,5.048 z"
             id="path20089" /><path
             fill="#be1931"
             d="m 5.42,18.527 -2.149,2.148 c -0.739,0.739 -0.741,1.939 -0.003,2.68 l 0.542,0.541 c 1.896,-0.505 3.999,-0.018 5.482,1.468 1.488,1.486 1.971,3.589 1.467,5.481 l 1.878,1.883 c 0.741,0.739 1.941,0.739 2.682,-0.002 l 2.189,-2.187 z M 18.941,29.107 29.099,18.955 17.008,6.943 6.854,17.095 Z m 1.99,-13.993 c 2.245,2.228 2.745,5.356 1.121,6.989 -1.627,1.635 -4.762,1.151 -7.001,-1.075 -2.239,-2.228 -2.738,-5.358 -1.114,-6.991 1.625,-1.63 4.755,-1.15 6.994,1.077 z M 32.731,12.65 30.85,10.769 C 28.955,11.272 26.852,10.79 25.367,9.301 23.879,7.817 23.391,5.71 23.897,3.817 L 23.356,3.271 C 22.616,2.536 21.416,2.536 20.678,3.274 L 18.442,5.51 30.534,17.521 32.73,15.326 c 0.74,-0.737 0.74,-1.936 0.001,-2.676 z"
             id="path20091" /></g></g></g></g></svg>
