<?xml version="1.0" encoding="UTF-8" standalone="no"?>
<!-- Created with Inkscape (http://www.inkscape.org/) -->

<svg
   width="43.712105mm"
   height="43.712105mm"
   viewBox="0 0 43.712105 43.712105"
   version="1.1"
   id="svg99452"
   inkscape:version="1.2.2 (b0a8486541, 2022-12-01)"
   sodipodi:docname="icon.svg"
   xmlns:inkscape="http://www.inkscape.org/namespaces/inkscape"
   xmlns:sodipodi="http://sodipodi.sourceforge.net/DTD/sodipodi-0.dtd"
   xmlns:xlink="http://www.w3.org/1999/xlink"
   xmlns="http://www.w3.org/2000/svg"
   xmlns:svg="http://www.w3.org/2000/svg">
  <sodipodi:namedview
     id="namedview99454"
     pagecolor="#ffffff"
     bordercolor="#000000"
     borderopacity="0.25"
     inkscape:showpageshadow="2"
     inkscape:pageopacity="0.0"
     inkscape:pagecheckerboard="0"
     inkscape:deskcolor="#d1d1d1"
     inkscape:document-units="mm"
     showgrid="false"
     inkscape:zoom="0.76435185"
     inkscape:cx="9.812235"
     inkscape:cy="185.12417"
     inkscape:window-width="1920"
     inkscape:window-height="1001"
     inkscape:window-x="0"
     inkscape:window-y="1080"
     inkscape:window-maximized="1"
     inkscape:current-layer="layer1" />
  <defs
     id="defs99449">
    <linearGradient
       inkscape:collect="always"
       xlink:href="#linearGradient85026"
       id="linearGradient98837"
       gradientUnits="userSpaceOnUse"
       gradientTransform="matrix(0.83345484,0,0,0.83345484,557.94478,-320.12348)"
       x1="-546.55823"
       y1="529.87091"
       x2="-494.11133"
       y2="529.87091" />
    <linearGradient
       inkscape:collect="always"
       id="linearGradient85026">
      <stop
         style="stop-color:#0f1130;stop-opacity:1;"
         offset="0"
         id="stop85022" />
      <stop
         style="stop-color:#553f90;stop-opacity:1;"
         offset="1"
         id="stop85024" />
    </linearGradient>
  </defs>
  <g
     inkscape:label="Layer 1"
     inkscape:groupmode="layer"
     id="layer1"
     transform="translate(-102.41318,-99.643947)">
    <circle
       style="fill:url(#linearGradient98837);fill-opacity:1;stroke:#99e077;stroke-width:0;stroke-linecap:round;stroke-linejoin:round;stroke-dasharray:none;stroke-opacity:1"
       id="circle98791"
       cx="124.26923"
       cy="121.5"
       r="21.856052" />
    <g
       id="g98799"
       transform="matrix(0.76226417,0,0,0.76226417,521.40901,-282.47158)">
      <path
         class="a"
         d="m -529.87539,536.74808 c -0.11688,-0.81014 0.44159,-1.55689 1.25173,-1.67378 l 15.69641,-2.26452 c 0.81014,-0.11687 1.5569,0.44159 1.67378,1.25173 l 1.94797,13.50229 c 0.11688,0.81013 -0.44158,1.5569 -1.25172,1.67378 l -15.69641,2.26451 c -0.81014,0.11688 -1.5569,-0.44157 -1.67379,-1.25171 z"
         id="path98793"
         style="fill:#99e077;fill-opacity:1;stroke-width:0.056842" />
      <path
         class="a"
         d="m -519.14404,545.25022 c -5.14774,0.74266 -9.91157,-2.81992 -10.65424,-7.96767 -0.74267,-5.14775 2.81992,-9.91158 7.96767,-10.65425 5.14774,-0.74266 9.91158,2.81992 10.65424,7.96767 0.74267,5.14775 -2.81991,9.91158 -7.96767,10.65425 z"
         id="path98795"
         style="fill:#99e077;fill-opacity:1;stroke-width:0.056842" />
      <path
         class="a"
         d="m -521.48538,529.2203 c -5.32215,0.76783 -10.24049,-2.91029 -11.00832,-8.23245 -0.76782,-5.32215 2.9103,-10.24049 8.23245,-11.00832 5.32216,-0.76782 10.2405,2.91031 11.00832,8.23245 0.76783,5.32216 -2.91029,10.2405 -8.23245,11.00832 z"
         id="path98797"
         style="fill:#99e077;fill-opacity:1;stroke-width:0.056842" />
    </g>
  </g>
</svg>
