<?xml version="1.0" encoding="UTF-8" standalone="no"?>
<!-- Created with Inkscape (http://www.inkscape.org/) -->

<svg
   width="47.828228mm"
   height="47.828228mm"
   viewBox="0 0 47.82823 47.828228"
   version="1.1"
   id="svg115087"
   inkscape:version="1.2.2 (b0a8486541, 2022-12-01)"
   sodipodi:docname="icon change?.svg"
   inkscape:export-filename="banner.png"
   inkscape:export-xdpi="100.88"
   inkscape:export-ydpi="100.88"
   xml:space="preserve"
   xmlns:inkscape="http://www.inkscape.org/namespaces/inkscape"
   xmlns:sodipodi="http://sodipodi.sourceforge.net/DTD/sodipodi-0.dtd"
   xmlns:xlink="http://www.w3.org/1999/xlink"
   xmlns="http://www.w3.org/2000/svg"
   xmlns:svg="http://www.w3.org/2000/svg"><sodipodi:namedview
     id="namedview115089"
     pagecolor="#ffffff"
     bordercolor="#000000"
     borderopacity="0.25"
     inkscape:showpageshadow="2"
     inkscape:pageopacity="0.0"
     inkscape:pagecheckerboard="0"
     inkscape:deskcolor="#d1d1d1"
     inkscape:document-units="mm"
     showgrid="false"
     inkscape:zoom="1.113713"
     inkscape:cx="-712.48158"
     inkscape:cy="110.89033"
     inkscape:window-width="1920"
     inkscape:window-height="1027"
     inkscape:window-x="0"
     inkscape:window-y="20"
     inkscape:window-maximized="1"
     inkscape:current-layer="layer1" /><defs
     id="defs115084"><rect
       x="-540.60785"
       y="2331.3252"
       width="698.48761"
       height="123.89719"
       id="rect111485" /><linearGradient
       inkscape:collect="always"
       xlink:href="#linearGradient85026"
       id="linearGradient111489"
       gradientUnits="userSpaceOnUse"
       gradientTransform="matrix(0.91193661,0,0,0.91193661,355.2031,-78.035219)"
       x1="-546.55823"
       y1="529.87091"
       x2="-494.11133"
       y2="529.87091" /><linearGradient
       inkscape:collect="always"
       id="linearGradient85026"><stop
         style="stop-color:#271e5f;stop-opacity:1;"
         offset="0"
         id="stop85022" /><stop
         style="stop-color:#903f63;stop-opacity:1;"
         offset="1"
         id="stop85024" /></linearGradient><linearGradient
       inkscape:collect="always"
       xlink:href="#linearGradient85026-3"
       id="linearGradient98837"
       gradientUnits="userSpaceOnUse"
       gradientTransform="matrix(0.9119322,0,0,0.9119322,284.65443,-78.032859)"
       x1="-546.55823"
       y1="529.87091"
       x2="-494.11133"
       y2="529.87091" /><linearGradient
       inkscape:collect="always"
       id="linearGradient85026-3"><stop
         style="stop-color:#0f1130;stop-opacity:1;"
         offset="0"
         id="stop85022-6" /><stop
         style="stop-color:#553f90;stop-opacity:1;"
         offset="1"
         id="stop85024-7" /></linearGradient></defs><g
     inkscape:label="Layer 1"
     inkscape:groupmode="layer"
     id="layer1"
     transform="translate(-38.994134,-390.75865)"><rect
       style="fill:#000000;fill-opacity:1;fill-rule:evenodd;stroke-width:13.771;stroke-linecap:round;stroke-linejoin:round;paint-order:markers fill stroke"
       id="rect15098"
       width="282.84549"
       height="178.08038"
       x="-296.66095"
       y="340.66211" /><circle
       style="fill:url(#linearGradient111489);fill-opacity:1;stroke:#99e077;stroke-width:0;stroke-linecap:round;stroke-linejoin:round;stroke-dasharray:none;stroke-opacity:1"
       id="circle111443"
       cx="-119.30926"
       cy="405.17349"
       r="23.914114" /><g
       id="g111451"
       transform="matrix(0.83404232,0,0,0.83404232,315.22696,-36.837839)"
       style="fill:#b1c963;fill-opacity:1"><path
         class="a"
         d="m -529.87539,536.74808 c -0.11688,-0.81014 0.44159,-1.55689 1.25173,-1.67378 l 15.69641,-2.26452 c 0.81014,-0.11687 1.5569,0.44159 1.67378,1.25173 l 1.94797,13.50229 c 0.11688,0.81013 -0.44158,1.5569 -1.25172,1.67378 l -15.69641,2.26451 c -0.81014,0.11688 -1.5569,-0.44157 -1.67379,-1.25171 z"
         id="path111445"
         style="fill:#b1c963;fill-opacity:1;stroke-width:0.056842" /><path
         class="a"
         d="m -519.14404,545.25022 c -5.14774,0.74266 -9.91157,-2.81992 -10.65424,-7.96767 -0.74267,-5.14775 2.81992,-9.91158 7.96767,-10.65425 5.14774,-0.74266 9.91158,2.81992 10.65424,7.96767 0.74267,5.14775 -2.81991,9.91158 -7.96767,10.65425 z"
         id="path111447"
         style="fill:#b1c963;fill-opacity:1;stroke-width:0.056842" /><path
         class="a"
         d="m -521.48538,529.2203 c -5.32215,0.76783 -10.24049,-2.91029 -11.00832,-8.23245 -0.76782,-5.32215 2.9103,-10.24049 8.23245,-11.00832 5.32216,-0.76782 10.2405,2.91031 11.00832,8.23245 0.76783,5.32216 -2.91029,10.2405 -8.23245,11.00832 z"
         id="path111449"
         style="fill:#b1c963;fill-opacity:1;stroke-width:0.056842" /></g><text
       xml:space="preserve"
       style="font-weight:bold;font-size:16.0004px;font-family:Roboto;-inkscape-font-specification:'Roboto Bold';text-align:center;text-anchor:middle;fill:#ffffff;fill-opacity:1;fill-rule:evenodd;stroke-width:4.33744;stroke-linecap:round;stroke-linejoin:round;paint-order:markers fill stroke"
       x="-154.45117"
       y="410.01736"
       id="text17448"><tspan
         sodipodi:role="line"
         id="tspan17446"
         style="fill:#ffffff;fill-opacity:1;stroke-width:4.33744"
         x="-154.45117"
         y="410.01736">-&gt;</tspan></text><circle
       style="fill:url(#linearGradient98837);fill-opacity:1;stroke:#99e077;stroke-width:0;stroke-linecap:round;stroke-linejoin:round;stroke-dasharray:none;stroke-opacity:1"
       id="circle98791"
       cx="-189.85562"
       cy="405.17349"
       r="23.914" /><path
       class="a"
       d="m -197.25788,410.83276 c -0.0975,-0.67569 0.3683,-1.29851 1.04399,-1.396 l 13.09141,-1.8887 c 0.67569,-0.0975 1.29851,0.36831 1.396,1.04399 l 1.62468,11.26143 c 0.0975,0.67568 -0.3683,1.29851 -1.04399,1.396 l -13.0914,1.88868 c -0.67569,0.0975 -1.29852,-0.36828 -1.39601,-1.04397 z"
       id="path98793"
       style="fill:#99e077;fill-opacity:1;stroke-width:0.0474084" /><path
       class="a"
       d="m -188.30752,417.92387 c -4.29341,0.6194 -8.26663,-2.35193 -8.88605,-6.64535 -0.61941,-4.29342 2.35193,-8.26663 6.64535,-8.88605 4.29341,-0.61941 8.26663,2.35192 8.88604,6.64534 0.61941,4.29342 -2.35191,8.26664 -6.64534,8.88606 z"
       id="path98795"
       style="fill:#99e077;fill-opacity:1;stroke-width:0.0474084" /><path
       class="a"
       d="m -190.26029,404.5543 c -4.43888,0.6404 -8.54096,-2.42729 -9.18136,-6.86618 -0.64039,-4.43888 2.4273,-8.54096 6.86618,-9.18136 4.43888,-0.64039 8.54097,2.42731 9.18136,6.86618 0.6404,4.43888 -2.42729,8.54097 -6.86618,9.18136 z"
       id="path98797"
       style="fill:#99e077;fill-opacity:1;stroke-width:0.0474084" /><text
       xml:space="preserve"
       style="font-weight:bold;font-size:13.3018px;font-family:Roboto;-inkscape-font-specification:'Roboto Bold';text-align:center;text-anchor:middle;fill:#99e077;fill-opacity:1;fill-rule:evenodd;stroke-width:3.60588;stroke-linecap:round;stroke-linejoin:round;paint-order:markers fill stroke"
       x="-162.15321"
       y="452.83719"
       id="text19948"><tspan
         sodipodi:role="line"
         id="tspan19946"
         style="font-style:normal;font-variant:normal;font-weight:bold;font-stretch:normal;font-family:Urbanist;-inkscape-font-specification:'Urbanist Bold';fill:#ffffff;fill-opacity:1;stroke-width:3.60588"
         x="-162.15321"
         y="452.83719">icon change?</tspan><tspan
         sodipodi:role="line"
         style="font-style:normal;font-variant:normal;font-weight:bold;font-stretch:normal;font-family:Urbanist;-inkscape-font-specification:'Urbanist Bold';fill:#ffffff;fill-opacity:1;stroke-width:3.60588"
         x="-162.15321"
         y="469.50241"
         id="tspan26613">both palettes will be available as</tspan><tspan
         sodipodi:role="line"
         style="font-style:normal;font-variant:normal;font-weight:bold;font-stretch:normal;font-family:Urbanist;-inkscape-font-specification:'Urbanist Bold';fill:#ffffff;fill-opacity:1;stroke-width:3.60588"
         x="-162.15321"
         y="486.1676"
         id="tspan38120">scene themes in-game</tspan></text></g></svg>
