<?xml version="1.0" encoding="UTF-8" standalone="no"?>
<!-- Created with Inkscape (http://www.inkscape.org/) -->

<svg
   width="123.08477mm"
   height="123.08477mm"
   viewBox="0 0 123.08477 123.08477"
   version="1.1"
   id="svg12555"
   inkscape:export-filename="bitma22341343123p.png"
   inkscape:export-xdpi="105.66"
   inkscape:export-ydpi="105.66"
   inkscape:version="1.2.2 (b0a8486541, 2022-12-01)"
   sodipodi:docname="limegreen.svg"
   xmlns:inkscape="http://www.inkscape.org/namespaces/inkscape"
   xmlns:sodipodi="http://sodipodi.sourceforge.net/DTD/sodipodi-0.dtd"
   xmlns="http://www.w3.org/2000/svg"
   xmlns:svg="http://www.w3.org/2000/svg">
  <sodipodi:namedview
     id="namedview12557"
     pagecolor="#ffffff"
     bordercolor="#000000"
     borderopacity="0.25"
     inkscape:showpageshadow="2"
     inkscape:pageopacity="0.0"
     inkscape:pagecheckerboard="0"
     inkscape:deskcolor="#d1d1d1"
     inkscape:document-units="mm"
     showgrid="false"
     inkscape:zoom="0.76435185"
     inkscape:cx="376.78982"
     inkscape:cy="300.25439"
     inkscape:window-width="1920"
     inkscape:window-height="1001"
     inkscape:window-x="0"
     inkscape:window-y="1080"
     inkscape:window-maximized="1"
     inkscape:current-layer="layer1" />
  <defs
     id="defs12552" />
  <g
     inkscape:label="Layer 1"
     inkscape:groupmode="layer"
     id="layer1"
     transform="translate(-3.2391603,-69.245682)">
    <rect
       style="fill:#94bb54;fill-opacity:1;stroke-width:13.771;stroke-linecap:round;stroke-linejoin:round;paint-order:markers fill stroke"
       id="rect12676"
       width="123.08477"
       height="123.08477"
       x="3.2391603"
       y="69.245682"
       ry="0" />
    <path
       id="path20832"
       style="fill:#ffffff;fill-opacity:1;stroke-width:16.8724;stroke-linecap:round;stroke-linejoin:round;paint-order:markers fill stroke"
       d="m 49.613157,85.462041 a 25.326424,25.326424 0 0 0 -25.326103,25.326099 25.326424,25.326424 0 0 0 23.198067,25.22947 l 0.06821,-0.78135 14.731917,-14.73192 11.080978,-0.96944 A 25.326424,25.326424 0 0 0 74.939776,110.78814 25.326424,25.326424 0 0 0 49.613157,85.462041 Z M 73.366229,119.5349 a 25.326424,25.326424 0 0 1 -23.753072,16.57986 25.326424,25.326424 0 0 1 -2.128036,-0.0971 l -1.747697,19.97397 11.950175,17.06666 20.124353,5.39192 18.882052,-8.80463 8.805146,-18.88257 -5.39244,-20.12435 -17.066136,-11.95017 z" />
  </g>
</svg>
