<svg version="1.1" viewBox="0 0 24 24" xmlns="http://www.w3.org/2000/svg">
<path d="m12.064 2.709c-0.09626-2e-3 -0.19845 0.0015876-0.30469 0.0097656a1.3113 1.3113 0 0 0-1.1797 1.6016c0.78913 3.4275 2.904 5.7345 3.1289 5.9727 0.5421 0.6878 0.78158 1.0756 1.1406 1.584-1.2544-0.65681-2.7259-1.5044-4.125-2.2715-0.78847-0.43227-1.5346-0.82413-2.207-1.1191-0.67246-0.29501-1.1716-0.56779-2.0215-0.50391a1.3113 1.3113 0 0 0-1.1797 1.6016c0.6729 2.9226 2.3255 5.0486 2.9375 5.7598a1.3111 1.3111 0 0 0 0.078125 0.11328c0.61267 0.76631 0.85257 1.1635 1.2324 1.7012-1.2541-0.65669-2.7246-1.5028-4.123-2.2695-0.78847-0.43227-1.5346-0.82413-2.207-1.1191-0.67246-0.29501-1.1716-0.56779-2.0215-0.50391a1.3113 1.3113 0 0 0-1.1797 1.6016c0.83337 3.6196 3.1719 6.0195 3.1719 6.0195a1.3111 1.3111 0 0 0 1.8535 0.039062 1.3111 1.3111 0 0 0 0.039062-1.8535s-0.74868-0.8569-1.4629-2.1621c0.19648 0.10426 0.33972 0.16377 0.54688 0.27734 1.518 0.83222 3.2638 1.8694 4.7344 2.6055 0.73527 0.36804 1.3849 0.66579 2.0313 0.83203 0.32317 0.08313 0.64581 0.15592 1.1016 0.080078 0.1566-0.02606 0.33874-0.099415 0.51758-0.20508a6 6 0 0 1-0.56641-2.5 6 6 0 0 1 0.26367-1.6562c-0.42366-0.63098-0.96649-1.3628-1.6621-2.2422a1.3111 1.3111 0 0 0-0.2207-0.3125s-0.74692-0.85761-1.4609-2.1621c0.19592 0.10397 0.3384 0.16412 0.54492 0.27734 1.2698 0.69618 2.6975 1.5337 3.9922 2.2207a6 6 0 0 1 4.543-2.125 6 6 0 0 1 0.13477 0.003906c-0.037233-0.066062-0.072602-0.13239-0.11328-0.20117-0.4931-0.8337-1.2484-1.8785-2.3574-3.2656a1.3111 1.3111 0 0 0-0.083984-0.087891c-0.18891-0.22731-0.80244-0.99675-1.3984-2.0859 0.19648 0.10426 0.33972 0.16378 0.54688 0.27734 1.518 0.83223 3.2638 1.8694 4.7344 2.6055 0.73527 0.36804 1.3849 0.66578 2.0312 0.83203 0.32317 0.08312 0.64581 0.15592 1.1016 0.080078 0.45575-0.07584 1.1268-0.5352 1.3105-1.1074 0.18375-0.57222 0.062587-0.98822-0.064453-1.3613-0.12705-0.3731-0.31204-0.73354-0.55859-1.1504-0.4931-0.8337-1.2484-1.8785-2.3574-3.2656a1.3111 1.3111 0 0 0-1.8418-0.20703 1.3111 1.3111 0 0 0-0.20508 1.8438c0.61267 0.76631 0.85257 1.1635 1.2324 1.7012-1.2541-0.65673-2.7246-1.5028-4.123-2.2695-0.78847-0.43227-1.5346-0.82413-2.207-1.1191-0.58841-0.25814-1.043-0.50015-1.7168-0.51367z" color="#000000" style="-inkscape-stroke:none"/>
<rect x="14" y="17" width="8" height="2" stroke-linecap="round" stroke-linejoin="round" stroke-width="6.0031" style="paint-order:markers stroke fill"/>
<rect transform="rotate(90)" x="14" y="-19" width="8" height="2" stroke-linecap="round" stroke-linejoin="round" stroke-width="6.0031" style="paint-order:markers stroke fill"/>
</svg>

