<svg xmlns="http://www.w3.org/2000/svg" viewBox="0 0 24 24">
  <path
     style="stroke-width:48.4338;stroke-linecap:round"
     d="M 15.818359 2.1269531 C 14.25288 2.0944589 12.803627 2.4425431 12.296875 2.9746094 C 11.104926 4.1780679 11.639051 7.1129036 9.9707031 8.78125 C 8.1584284 10.593525 5.1175614 8.9671027 3.3613281 10.294922 C 2.6013276 10.869527 2.2896604 12.340669 2.0976562 13.203125 C 0.63356457 19.779627 5.3369122 21.29083 11.056641 21.892578 C 11.969098 21.910123 12.744804 21.918524 13.445312 21.904297 A 6 6 0 0 1 12 18 A 6 6 0 0 1 18 12 A 6 6 0 0 1 21.888672 13.431641 C 22.073386 10.072418 21.512908 6.4345502 20.681641 4.5488281 C 20.037256 2.8389103 17.831118 2.1687314 15.818359 2.1269531 z " />
  <rect
     style="stroke-width:6.0031;stroke-linecap:round;stroke-linejoin:round;paint-order:markers stroke fill;"
     width="8"
     height="2"
     x="14"
     y="17" />
  <rect
     style="stroke-width:6.0031;stroke-linecap:round;stroke-linejoin:round;paint-order:markers stroke fill;"
     width="8"
     height="2"
     x="14"
     y="-19"
     transform="rotate(90)" />
</svg>
