<svg xmlns="http://www.w3.org/2000/svg" viewBox="0 0 24 24">
  <path
     id="path528"
     d="M 12 2 A 10 10 0 0 0 2 12 A 10 10 0 0 0 12 22 A 10 10 0 0 0 22 12 A 10 10 0 0 0 12 2 z M 12 3.7792969 A 1.7613783 1.7613783 0 0 1 13.761719 5.5410156 A 1.7613783 1.7613783 0 0 1 12 7.3027344 A 1.7613783 1.7613783 0 0 1 10.238281 5.5410156 A 1.7613783 1.7613783 0 0 1 12 3.7792969 z M 6.3222656 7.0117188 A 1.7613783 1.7613783 0 0 1 7.2871094 7.2460938 A 1.7613783 1.7613783 0 0 1 7.9316406 9.6523438 A 1.7613783 1.7613783 0 0 1 5.5253906 10.296875 A 1.7613783 1.7613783 0 0 1 4.8808594 7.890625 A 1.7613783 1.7613783 0 0 1 6.3222656 7.0117188 z M 17.677734 7.0117188 A 1.7613783 1.7613783 0 0 1 19.119141 7.890625 A 1.7613783 1.7613783 0 0 1 18.474609 10.296875 A 1.7613783 1.7613783 0 0 1 16.068359 9.6523438 A 1.7613783 1.7613783 0 0 1 16.712891 7.2460938 A 1.7613783 1.7613783 0 0 1 17.677734 7.0117188 z M 12 9 A 3 3 0 0 1 15 12 A 3 3 0 0 1 12 15 A 3 3 0 0 1 9 12 A 3 3 0 0 1 12 9 z M 6.4902344 13.470703 A 1.7613783 1.7613783 0 0 1 7.9316406 14.347656 A 1.7613783 1.7613783 0 0 1 7.2871094 16.753906 A 1.7613783 1.7613783 0 0 1 4.8808594 16.109375 A 1.7613783 1.7613783 0 0 1 5.5253906 13.703125 A 1.7613783 1.7613783 0 0 1 6.4902344 13.470703 z M 17.509766 13.470703 A 1.7613783 1.7613783 0 0 1 18.474609 13.703125 A 1.7613783 1.7613783 0 0 1 19.119141 16.109375 A 1.7613783 1.7613783 0 0 1 16.712891 16.753906 A 1.7613783 1.7613783 0 0 1 16.068359 14.347656 A 1.7613783 1.7613783 0 0 1 17.509766 13.470703 z M 12 16.697266 A 1.7613783 1.7613783 0 0 1 13.761719 18.458984 A 1.7613783 1.7613783 0 0 1 12 20.220703 A 1.7613783 1.7613783 0 0 1 10.238281 18.458984 A 1.7613783 1.7613783 0 0 1 12 16.697266 z " />
</svg>
