<svg xmlns="http://www.w3.org/2000/svg" viewBox="0 0 24 24">
  <path
     d="m 21.390594,16.695297 c 0,0.396492 -0.219114,0.740814 -0.553002,0.918191 l -8.242854,4.632693 C 12.427794,22.371389 12.219114,22.433993 12,22.433993 c -0.219114,0 -0.427794,-0.0626 -0.594738,-0.187812 L 3.1624076,17.613488 C 2.8285198,17.436111 2.609406,17.091789 2.609406,16.695297 V 7.304703 c 0,-0.3964918 0.2191138,-0.7408135 0.5530016,-0.9181914 L 11.405262,1.7538185 C 11.572206,1.6286106 11.780886,1.5660066 12,1.5660066 c 0.219114,0 0.427794,0.062604 0.594738,0.1878119 l 8.242854,4.6326931 c 0.333888,0.1773779 0.553002,0.5216996 0.553002,0.9181914 v 9.390594 M 12,6.7830033 A 5.2169967,5.2169967 0 0 0 6.7830033,12 5.2169967,5.2169967 0 0 0 12,17.216997 5.2169967,5.2169967 0 0 0 17.216997,12 5.2169967,5.2169967 0 0 0 12,6.7830033 Z" />
</svg>
