<?xml version="1.0" encoding="UTF-8"?>
<svg width="46.942mm" height="46.942mm" version="1.1" viewBox="0 0 46.942 46.942" xmlns="http://www.w3.org/2000/svg">
<g transform="translate(-40.196 -132.45)">
<path d="m63.199 137.76a2.5648 2.5648 0 0 0-2.3086 3.1328c1.63 7.0797 6.2051 11.775 6.2051 11.775a2.5645 2.5645 0 0 0 3.625 0.0762 2.5645 2.5645 0 0 0 0.07617-3.627s-1.4644-1.6756-2.8613-4.2285c0.3843 0.20393 0.66318 0.32084 1.0684 0.54297 2.9691 1.6278 6.3854 3.656 9.2617 5.0957 1.4381 0.71986 2.7065 1.3018 3.9707 1.627 0.63211 0.16258 1.2648 0.30459 2.1562 0.15625s2.2031-1.0468 2.5625-2.166 0.12155-1.9304-0.12695-2.6602c-0.2485-0.72976-0.6076-1.4347-1.0898-2.25-0.96448-1.6307-2.4421-3.6774-4.6113-6.3906a2.5645 2.5645 0 0 0-3.6035-0.40234 2.5645 2.5645 0 0 0-0.40234 3.6055c1.1983 1.4989 1.6691 2.2764 2.4121 3.3281-2.4529-1.2845-5.3291-2.9418-8.0645-4.4414-1.5422-0.8455-3.0031-1.6105-4.3184-2.1875-1.3153-0.57703-2.2888-1.1113-3.9512-0.98632z" color="#000000" style="-inkscape-stroke:none"/>
<path d="m52.902 148.06a2.5648 2.5648 0 0 0-2.3066 3.1328c1.63 7.0797 6.2031 11.775 6.2031 11.775a2.5645 2.5645 0 0 0 3.627 0.0762 2.5645 2.5645 0 0 0 0.07617-3.625s-1.4628-1.677-2.8594-4.2285c0.3832 0.20336 0.66051 0.31956 1.0645 0.54101 2.9691 1.6278 6.3874 3.658 9.2637 5.0977 1.4381 0.71986 2.7045 1.2998 3.9688 1.625 0.63211 0.16258 1.2668 0.30654 2.1582 0.1582s2.2031-1.0487 2.5625-2.168c0.3594-1.1192 0.11959-1.9284-0.12891-2.6582s-0.60565-1.4366-1.0879-2.252c-0.96448-1.6307-2.4421-3.6774-4.6113-6.3906a2.5645 2.5645 0 0 0-3.6055-0.40039 2.5645 2.5645 0 0 0-0.40039 3.6035c1.1998 1.5007 1.6707 2.2796 2.4141 3.332-2.4535-1.2847-5.3298-2.945-8.0664-4.4453-1.5422-0.8455-3.0031-1.6105-4.3184-2.1875-1.3153-0.57703-2.2908-1.1113-3.9531-0.98633z" color="#000000" style="-inkscape-stroke:none"/>
<path d="m42.568 158.39a2.5648 2.5648 0 0 0-2.3066 3.1328c1.63 7.0797 6.2051 11.775 6.2051 11.775a2.5645 2.5645 0 0 0 3.625 0.0762 2.5645 2.5645 0 0 0 0.07617-3.627s-1.4644-1.6756-2.8613-4.2285c0.3843 0.20392 0.66318 0.32083 1.0684 0.54297 2.9691 1.6278 6.3854 3.656 9.2617 5.0957 1.4381 0.71986 2.7065 1.3018 3.9707 1.627 0.63211 0.16259 1.2648 0.30459 2.1562 0.15625 0.89142-0.14833 2.2031-1.0468 2.5625-2.166s0.12155-1.9304-0.12695-2.6602c-0.2485-0.72977-0.6076-1.4347-1.0898-2.25-0.96448-1.6307-2.4421-3.6774-4.6113-6.3906a2.5645 2.5645 0 0 0-3.6035-0.40235 2.5645 2.5645 0 0 0-0.40234 3.6055c1.1983 1.4989 1.6691 2.2764 2.4121 3.3281-2.4529-1.2845-5.3291-2.9418-8.0645-4.4414-1.5422-0.8455-3.0031-1.6105-4.3184-2.1875-1.3153-0.57703-2.2908-1.1113-3.9531-0.98633z" color="#000000" style="-inkscape-stroke:none"/>
</g>
</svg>

